<svg width="960" height="42" viewBox="0 0 960 42" fill="none" xmlns="http://www.w3.org/2000/svg">
<path fillRule="evenodd" clipRule="evenodd" d="M0 42H960V10.5C960 7.71523 959.032 5.04451 957.308 3.07538C955.584 1.10625 953.246 0 950.809 0L9.19149 0C6.75376 0 4.41586 1.10625 2.69212 3.07538C0.968386 5.04451 0 7.71523 0 10.5L0 42Z" fill="#DFE1E6"/>
<path d="M21 27.8672C24.866 27.8672 28 24.7332 28 20.8672C28 17.0012 24.866 13.8672 21 13.8672C17.134 13.8672 14 17.0012 14 20.8672C14 24.7332 17.134 27.8672 21 27.8672Z" fill="#FF6362"/>
<path d="M44 27.8672C47.866 27.8672 51 24.7332 51 20.8672C51 17.0012 47.866 13.8672 44 13.8672C40.134 13.8672 37 17.0012 37 20.8672C37 24.7332 40.134 27.8672 44 27.8672Z" fill="#FDBD04"/>
<path d="M67 27.8672C70.866 27.8672 74 24.7332 74 20.8672C74 17.0012 70.866 13.8672 67 13.8672C63.134 13.8672 60 17.0012 60 20.8672C60 24.7332 63.134 27.8672 67 27.8672Z" fill="#48DD82"/>
</svg>
